HIERARCHY
ROOT Hips
{
 OFFSET 0.000000 0.000000 0.000000
 CHANNELS 6 Xposition Yposition Zposition Yrotation Xrotation Zrotation
 JOINT Chest
 {
  OFFSET 0.000000 13.173100 -0.061900
  CHANNELS 3 Yrotation Xrotation Zrotation
  JOINT Chest2
  {
   OFFSET 0.000000 8.040800 0.126200
   CHANNELS 3 Yrotation Xrotation Zrotation
   JOINT Chest3
   {
    OFFSET 0.000000 7.994400 0.000000
    CHANNELS 3 Yrotation Xrotation Zrotation
    JOINT Chest4
    {
     OFFSET 0.000000 7.986200 0.000000
     CHANNELS 3 Yrotation Xrotation Zrotation
     JOINT Neck
     {
      OFFSET 0.000000 12.259400 0.000000
      CHANNELS 3 Yrotation Xrotation Zrotation
      JOINT Head
      {
       OFFSET 0.000000 7.518700 0.267100
       CHANNELS 3 Yrotation Xrotation Zrotation
       End Site
       {
        OFFSET 0.000000 13.617700 0.141000
       }
      }
     }
     JOINT RightCollar
     {
      OFFSET -2.983800 8.314300 0.000000
      CHANNELS 3 Yrotation Xrotation Zrotation
      JOINT RightShoulder
      {
       OFFSET -16.133400 0.000000 0.000000
       CHANNELS 3 Yrotation Xrotation Zrotation
       JOINT RightElbow
       {
        OFFSET 0.000000 -29.822100 0.000000
        CHANNELS 3 Yrotation Xrotation Zrotation
        JOINT RightWrist
        {
         OFFSET 0.000000 -24.437700 0.010900
         CHANNELS 3 Yrotation Xrotation Zrotation
         End Site
         {
          OFFSET 0.000000 -18.312300 0.000000
         }
        }
       }
      }
     }
     JOINT LeftCollar
     {
      OFFSET 2.983800 8.314300 0.000000
      CHANNELS 3 Yrotation Xrotation Zrotation
      JOINT LeftShoulder
      {
       OFFSET 16.133400 0.000000 0.000000
       CHANNELS 3 Yrotation Xrotation Zrotation
       JOINT LeftElbow
       {
        OFFSET 0.000000 -29.822100 0.000000
        CHANNELS 3 Yrotation Xrotation Zrotation
        JOINT LeftWrist
        {
         OFFSET 0.000000 -24.437700 0.010900
         CHANNELS 3 Yrotation Xrotation Zrotation
         End Site
         {
          OFFSET 0.000000 -18.312300 0.000000
         }
        }
       }
      }
     }
    }
   }
  }
 }
 JOINT RightHip
 {
  OFFSET -11.206700 0.306200 0.030900
  CHANNELS 3 Yrotation Xrotation Zrotation
  JOINT RightKnee
  {
   OFFSET 0.000000 -57.334900 0.009400
   CHANNELS 3 Yrotation Xrotation Zrotation
   JOINT RightAnkle
   {
    OFFSET 0.000000 -43.376200 0.036600
    CHANNELS 3 Yrotation Xrotation Zrotation
    JOINT RightToe
    {
     OFFSET 0.000000 -10.035500 18.363100
     CHANNELS 3 Yrotation Xrotation Zrotation
     End Site
     {
      OFFSET 0.000000 -1.618500 7.239000
     }
    }
   }
  }
 }
 JOINT LeftHip
 {
  OFFSET 11.206700 0.306200 0.030900
  CHANNELS 3 Yrotation Xrotation Zrotation
  JOINT LeftKnee
  {
   OFFSET 0.000000 -57.334900 0.009400
   CHANNELS 3 Yrotation Xrotation Zrotation
   JOINT LeftAnkle
   {
    OFFSET 0.000000 -43.376200 0.036600
    CHANNELS 3 Yrotation Xrotation Zrotation
    JOINT LeftToe
    {
     OFFSET 0.000000 -10.035500 18.363100
     CHANNELS 3 Yrotation Xrotation Zrotation
     End Site
     {
      OFFSET 0.000000 -1.618500 7.239000
     }
    }
   }
  }
 }
}
MOTION
Frames: 12
Frame Time: 0.008333
0.000000 110.232800 0.000000 0.000000 -5.767877 0.000000 0.000000 11.653817 0.000000 0.000000 -5.885947 0.000000 0.000000 -0.000000 0.000000 0.000000 -0.000000 0.000000 0.000000 12.528835 0.000000 0.000000 0.711642 0.000000 0.000000 -0.000000 0.000000 0.000000 0.000000 -90.000000 0.000000 -2.309062 0.000000 0.000000 2.309062 0.000000 0.000000 -0.000000 0.000000 0.000000 -0.000000 90.000000 0.000000 -2.309062 0.000000 0.000000 2.309062 0.000000 0.000000 8.520406 0.000000 0.000000 1.905762 0.000000 -0.000000 -4.658285 0.000000 0.000000 -0.000000 0.000000 0.000000 8.520406 0.000000 0.000000 1.905762 0.000000 -0.000000 -4.658285 0.000000 0.000000 -0.000000 0.000000
-97.671048 64.566987 86.784251 173.073769 -35.140646 -2.653676 2.750954 22.881854 2.425685 0.322328 3.277479 0.436221 0.561963 5.403944 0.669810 2.354657 19.194471 2.792165 -1.494352 16.997392 1.592694 -3.365500 -4.173919 3.543287 -2.986500 1.919367 -3.719181 -4.192049 -3.824946 2.692026 167.786775 -79.706740 -157.291024 5.230748 4.558165 -0.162634 -7.535466 -2.857262 -1.676121 -7.921487 -34.569299 7.924411 -154.733777 -47.730020 143.774116 -13.113763 -30.824052 35.725183 -4.380884 -45.669908 4.614338 -144.698723 88.684487 -140.277576 -1.052123 -9.276792 -3.227618 0.083744 -0.257154 0.065489 -3.998044 -42.434038 4.531101 76.865705 83.088984 67.039226 -4.674711 -13.125448 7.464509 0.111989 1.033869 -0.013360
-97.666798 64.568668 86.775694 173.064998 -35.134476 -2.651119 2.764132 22.893786 2.421856 0.339978 3.339646 0.407865 0.557055 5.366411 0.684339 2.361032 19.177040 2.799754 -1.480330 17.005117 1.560154 -3.292243 -4.195236 3.454684 -2.969979 1.978877 -3.713934 -4.214837 -3.893573 2.710713 167.695319 -79.719288 -157.169716 5.196700 4.481760 -0.225066 -7.498456 -2.783977 -1.672981 -7.838260 -34.371428 7.970086 -154.900120 -47.581963 143.916436 -13.227661 -30.924733 35.814489 -4.395098 -45.672491 4.637908 -144.637370 88.678698 -140.225751 -1.052748 -9.283552 -3.233340 0.082670 -0.248306 0.059643 -4.010632 -42.436956 4.535336 76.862019 83.111902 67.038173 -4.652001 -13.126333 7.465164 0.105445 1.068365 0.002407
-97.661558 64.567993 86.769962 173.056336 -35.106678 -2.651180 2.775763 22.883655 2.418487 0.346933 3.357538 0.396028 0.561537 5.369436 0.680616 2.379546 19.194784 2.778650 -1.471489 16.969442 1.577143 -3.256038 -4.222828 3.400406 -2.973462 1.972172 -3.665228 -4.198692 -3.887496 2.707768 167.817180 -79.695941 -157.279353 5.158135 4.410854 -0.266374 -7.467368 -2.737387 -1.634097 -7.738478 -34.181157 8.019452 -155.125151 -47.392918 144.107375 -13.313573 -30.999858 35.841163 -4.419444 -45.699637 4.675472 -144.318583 88.666956 -139.922674 -1.052084 -9.282466 -3.236647 0.082702 -0.248520 0.059328 -4.015869 -42.462917 4.542298 76.919703 83.114225 67.104991 -4.663252 -13.127405 7.460106 0.111704 1.084361 0.013606
-97.654939 64.569760 86.760707 173.034366 -35.094410 -2.644083 2.805655 22.903378 2.409107 0.349698 3.357659 0.392842 0.566002 5.371252 0.676102 2.398001 19.208891 2.754361 -1.467541 16.925702 1.626395 -3.230370 -4.241211 3.340725 -2.985485 1.939511 -3.606302 -4.112531 -3.820600 2.681259 168.034842 -79.645974 -157.545115 5.122651 4.328632 -0.296302 -7.430898 -2.685556 -1.595952 -7.622762 -33.999454 8.076342 -155.458990 -47.194041 144.396355 -13.354611 -31.033517 35.765346 -4.411115 -45.710929 4.696519 -144.101073 88.656183 -139.705122 -1.049355 -9.284805 -3.240051 0.079988 -0.249441 0.058917 -4.014314 -42.468405 4.544608 76.997474 83.114960 67.196629 -4.666960 -13.143271 7.448617 0.121536 1.103393 0.019413
-97.651439 64.567647 86.756527 173.012078 -35.050802 -2.622067 2.827730 22.892108 2.382085 0.351204 3.356954 0.389216 0.570351 5.371913 0.671175 2.411630 19.210204 2.737886 -1.457239 16.913168 1.621880 -3.227238 -4.267480 3.365210 -2.976304 1.967374 -3.569403 -4.112975 -3.860751 2.693727 168.127804 -79.647610 -157.616245 5.087166 4.248142 -0.317623 -7.384290 -2.625670 -1.573417 -7.496496 -33.826362 8.141110 -155.820529 -47.011834 144.695100 -13.365478 -31.066002 35.652057 -4.397160 -45.759932 4.703813 -143.949687 88.649215 -139.557937 -1.047485 -9.287652 -3.243798 0.078100 -0.247226 0.059946 -3.998702 -42.508228 4.529551 77.042660 83.106611 67.248470 -4.673892 -13.148698 7.446878 0.126780 1.123521 0.025408
-97.647570 64.570108 86.746310 173.009571 -35.038478 -2.605697 2.841239 22.944114 2.335548 0.342868 3.308588 0.414728 0.578314 5.389568 0.657140 2.424237 19.210995 2.721814 -1.447167 16.910371 1.570404 -3.227580 -4.301000 3.434482 -2.961862 2.045462 -3.562285 -4.124860 -3.949828 2.737666 168.226391 -79.636967 -157.701915 5.067897 4.180891 -0.314409 -7.334940 -2.572199 -1.556571 -7.367501 -33.665897 8.212391 -156.176470 -46.867403 144.956869 -13.373409 -31.113525 35.563249 -4.386427 -45.771675 4.695823 -143.948259 88.634875 -139.558466 -1.044056 -9.297901 -3.246244 0.075282 -0.246248 0.056914 -3.990664 -42.507840 4.501946 77.055445 83.091891 67.268203 -4.678874 -13.170593 7.434222 0.128073 1.149407 0.035556
-97.641596 64.569756 86.741140 173.004037 -35.002451 -2.595182 2.845520 22.925178 2.319998 0.342488 3.308594 0.411859 0.591099 5.407599 0.646226 2.435869 19.212466 2.706767 -1.448835 16.877657 1.603233 -3.207918 -4.318600 3.377490 -2.962038 2.056948 -3.540890 -4.083209 -3.921438 2.740159 168.348431 -79.563631 -157.840896 5.057348 4.118332 -0.315007 -7.287055 -2.526157 -1.544910 -7.244698 -33.518799 8.290147 -156.576825 -46.792077 145.222668 -13.463323 -31.171900 35.589193 -4.380147 -45.808823 4.706672 -143.798975 88.623519 -139.413774 -1.052416 -9.305167 -3.242701 0.079698 -0.240582 0.051720 -3.985120 -42.540082 4.493075 77.090400 83.088250 67.309273 -4.690798 -13.174557 7.429714 0.138059 1.159842 0.043260
-97.645118 64.566937 86.738361 173.023313 -34.947464 -2.555542 2.811745 22.890309 2.258466 0.350079 3.326336 0.402869 0.589033 5.390235 0.652099 2.456679 19.231196 2.682510 -1.446686 16.877815 1.558589 -3.209185 -4.365134 3.406472 -2.965959 2.062106 -3.522400 -4.080468 -3.919543 2.759363 168.405871 -79.523836 -157.917352 5.083012 4.053146 -0.278998 -7.242746 -2.485656 -1.536048 -7.132258 -33.379374 8.372160 -156.998762 -46.713907 145.523674 -13.473387 -31.209021 35.488514 -4.346935 -45.874170 4.647750 -144.357651 88.608459 -139.975859 -1.064803 -9.319583 -3.237643 0.082800 -0.237903 0.051211 -3.977856 -42.583734 4.438933 77.059029 83.085233 67.267467 -4.729932 -13.209331 7.419418 0.172676 1.200842 0.064619
-97.640494 64.565355 86.736097 173.033015 -34.899174 -2.543115 2.841983 22.899606 2.232096 0.328408 3.301408 0.411707 0.581821 5.374040 0.657633 2.482884 19.246365 2.659989 -1.452184 16.869784 1.541866 -3.214687 -4.404025 3.365631 -2.971412 2.064529 -3.503804 -4.083656 -3.910645 2.778331 168.128426 -79.440066 -157.639904 5.062161 4.009830 -0.266925 -7.202710 -2.447107 -1.525421 -7.026035 -33.243684 8.450663 -157.429734 -46.633922 145.838285 -13.450813 -31.209071 35.400174 -4.337884 -45.926275 4.637836 -144.581179 88.602562 -140.199746 -1.070784 -9.324393 -3.240444 0.075772 -0.237876 0.055366 -3.983851 -42.629052 4.423945 77.056010 83.083568 67.257966 -4.735249 -13.210763 7.421777 0.177730 1.204026 0.064623
-97.631286 64.568235 86.728854 173.039305 -34.884111 -2.544434 2.848884 22.896542 2.228318 0.342806 3.317253 0.404056 0.585871 5.375546 0.653879 2.499405 19.242589 2.650796 -1.469015 16.851425 1.562553 -3.220872 -4.414083 3.377183 -2.975940 2.065462 -3.485127 -4.089230 -3.897492 2.794799 167.833715 -79.355104 -157.359659 5.059540 3.973134 -0.244216 -7.165676 -2.410003 -1.512261 -6.923914 -33.107344 8.522073 -157.862654 -46.559285 146.152829 -13.441149 -31.187386 35.371502 -4.340210 -45.937811 4.647827 -144.664698 88.598953 -140.281208 -1.074005 -9.329302 -3.243846 0.068822 -0.240072 0.055691 -3.991714 -42.641385 4.423831 77.093775 83.092741 67.298976 -4.730824 -13.211395 7.417853 0.177434 1.203899 0.069808
-97.623956 64.570869 86.721991 173.051196 -34.869368 -2.540868 2.847889 22.893009 2.215479 0.389111 3.346626 0.382067 0.561325 5.358996 0.666958 2.516758 19.236685 2.642978 -1.484593 16.848273 1.549691 -3.247090 -4.431595 3.389043 -2.979227 2.066664 -3.467422 -4.110516 -3.896534 2.817017 167.620975 -79.307836 -157.153378 5.098289 3.937694 -0.219998 -7.128563 -2.375137 -1.499049 -6.827548 -32.966012 8.589588 -158.291884 -46.486533 146.467456 -13.430569 -31.162173 35.373420 -4.331294 -45.950690 4.643906 -144.599439 88.591692 -140.213140 -1.079292 -9.337375 -3.240614 0.072372 -0.239721 0.053029 -4.008519 -42.651717 4.420339 77.098215 83.100163 67.295282 -4.723763 -13.210221 7.415040 0.178718 1.204073 0.074952
